<?xml version="1.0" encoding="utf-8"?>
<!-- Generator: Adobe Illustrator 19.1.0, SVG Export Plug-In . SVG Version: 6.00 Build 0)  -->
<!DOCTYPE svg PUBLIC "-//W3C//DTD SVG 1.1//EN" "http://www.w3.org/Graphics/SVG/1.1/DTD/svg11.dtd">
<svg version="1.1" id="Layer_1" xmlns="http://www.w3.org/2000/svg" xmlns:xlink="http://www.w3.org/1999/xlink" x="0px" y="0px"
	 viewBox="0 0 720 720" style="enable-background:new 0 0 720 720;" xml:space="preserve">
<style type="text/css">
	.st0{fill:#FFFFFF;}
</style>
<g>
	<path class="st0" d="M213.5,140.1v24.7h33.7v11h-33.7v34.3h-12.3V129H253v11H213.5z"/>
	<g>
		<path class="st0" d="M230.3,382.2c-8.4,0-15.7-3.1-21.3-8.7c-8-8-7.9-17-7.9-32.6c0-15.6-0.1-24.6,7.9-32.6
			c5.6-5.6,12.9-8.7,21.3-8.7c14.9,0,26.1,8.8,28.9,24.9h-12.5c-1.9-8.2-7.4-13.9-16.4-13.9c-4.8,0-9.1,1.8-12,4.9
			c-4,4.3-4.9,9-4.9,25.3s0.9,21,4.9,25.3c2.8,3.1,7.2,4.9,12,4.9c9,0,14.6-5.7,16.5-13.9h12.4C256.5,373.4,245,382.2,230.3,382.2z"
			/>
		<g>
			<path class="st0" d="M334.7,373.5c-5.6,5.6-12.8,8.7-21.4,8.7c-8.7,0-15.7-3.1-21.3-8.7c-8-8-7.9-17-7.9-32.6
				c0-15.6-0.1-24.6,7.9-32.6c5.6-5.6,12.6-8.7,21.3-8.7c8.7,0,15.8,3.1,21.4,8.7c8,8,7.7,17,7.7,32.6
				C342.4,356.5,342.6,365.5,334.7,373.5z M325.3,315.8c-2.9-3.1-7.3-5-12.1-5c-4.8,0-9.2,1.9-12.1,5c-4,4.3-4.8,8.9-4.8,25.2
				s0.8,20.8,4.8,25.2c2.9,3.1,7.3,5,12.1,5c4.8,0,9.2-1.9,12.1-5c4-4.3,4.8-8.9,4.8-25.2S329.3,320.1,325.3,315.8z"/>
		</g>
	</g>
	<g>
		<path class="st0" d="M201.2,491.8v-81.1h12.3v70h39.1v11H201.2z"/>
		<g>
			<path class="st0" d="M287.3,491.8v-81.1h51.8v11h-39.5v23.7h33.7v10.9h-33.7v24.4h39.5v11H287.3z"/>
		</g>
		<g>
			<path class="st0" d="M396.8,492.5c-8.4,0-15.7-3.1-21.3-8.7c-8-8-7.9-17-7.9-32.6c0-15.6-0.1-24.6,7.9-32.6
				c5.6-5.6,12.9-8.7,21.3-8.7c14.9,0,26.1,8.8,28.9,24.9h-12.5c-1.9-8.2-7.4-13.9-16.4-13.9c-4.8,0-9.1,1.8-12,4.9
				c-4,4.3-4.9,9-4.9,25.3c0,16.3,0.9,21,4.9,25.3c2.8,3.1,7.2,4.9,12,4.9c9,0,14.6-5.7,16.5-13.9h12.4
				C423,483.7,411.5,492.5,396.8,492.5z"/>
		</g>
	</g>
	<g>
		<path class="st0" d="M236.4,531.4v70h-12.3v-70h-22.3v-11h56.9v11H236.4z"/>
	</g>
	<g>
		<path class="st0" d="M460,601.5v-81.1h51.8v11h-39.5v23.7H506V566h-33.7v24.4h39.5v11H460z"/>
	</g>
	<rect x="201.2" y="248.4" class="st0" width="51.8" height="12.3"/>
	<g>
		<path class="st0" d="M307.1,601.5v-81.1h12.3v81.1H307.1z"/>
	</g>
	<g>
		<path class="st0" d="M371.1,381.5v-81.1h12.3v70h39.1v11H371.1z"/>
	</g>
	<g>
		<path class="st0" d="M401.4,601.5h-9.6l-26.6-81.1H378l18.7,59l18.7-59h13L401.4,601.5z"/>
	</g>
	<path class="st0" d="M568,646.6H152V73.4H568V646.6z M166.1,632.6h387.7V87.4H166.1V632.6z"/>
</g>
</svg>
